<mxfile host="Electron" modified="2024-06-03T13:43:56.986Z" agent="Mozilla/5.0 (Windows NT 10.0; Win64; x64) AppleWebKit/537.36 (KHTML, like Gecko) draw.io/24.4.13 Chrome/124.0.6367.207 Electron/30.0.6 Safari/537.36" etag="FNnwHZvZ_N4mxuyyMirD" version="24.4.13" type="device">
  <diagram name="Page-1" id="m5XqweB8EYQxsQ72TOpW">
    <mxGraphModel dx="724" dy="452" grid="1" gridSize="10" guides="1" tooltips="1" connect="1" arrows="1" fold="1" page="1" pageScale="1" pageWidth="827" pageHeight="1169" math="0" shadow="0">
      <root>
        <mxCell id="0" />
        <mxCell id="1" parent="0" />
        <mxCell id="OMP3_EN-doG6q4LS8CJa-1" value="Client" style="rounded=0;whiteSpace=wrap;html=1;" vertex="1" parent="1">
          <mxGeometry x="160" y="240" width="80" height="40" as="geometry" />
        </mxCell>
        <mxCell id="OMP3_EN-doG6q4LS8CJa-2" value="Serveur" style="rounded=0;whiteSpace=wrap;html=1;" vertex="1" parent="1">
          <mxGeometry x="520" y="240" width="80" height="40" as="geometry" />
        </mxCell>
        <mxCell id="OMP3_EN-doG6q4LS8CJa-3" value="Le client veut générer une image&amp;nbsp;" style="text;html=1;align=center;verticalAlign=middle;whiteSpace=wrap;rounded=0;" vertex="1" parent="1">
          <mxGeometry x="135" y="290" width="130" height="30" as="geometry" />
        </mxCell>
        <mxCell id="OMP3_EN-doG6q4LS8CJa-5" value="Le client demande des&lt;div&gt;machines pour générer l&#39;image&lt;/div&gt;" style="endArrow=classic;html=1;rounded=0;" edge="1" parent="1">
          <mxGeometry y="-20" width="50" height="50" relative="1" as="geometry">
            <mxPoint x="280" y="259.5" as="sourcePoint" />
            <mxPoint x="480" y="259.5" as="targetPoint" />
            <mxPoint as="offset" />
          </mxGeometry>
        </mxCell>
        <mxCell id="OMP3_EN-doG6q4LS8CJa-78" value="" style="endArrow=classic;html=1;rounded=0;exitX=0.5;exitY=1;exitDx=0;exitDy=0;" edge="1" parent="1" source="OMP3_EN-doG6q4LS8CJa-2">
          <mxGeometry width="50" height="50" relative="1" as="geometry">
            <mxPoint x="430" y="360" as="sourcePoint" />
            <mxPoint x="560" y="320" as="targetPoint" />
          </mxGeometry>
        </mxCell>
        <mxCell id="OMP3_EN-doG6q4LS8CJa-79" value="Le serveur donne les accès&lt;div&gt;à toutes les machines&lt;/div&gt;" style="endArrow=classic;html=1;rounded=0;" edge="1" parent="1">
          <mxGeometry x="-0.0667" y="20" width="50" height="50" relative="1" as="geometry">
            <mxPoint x="450" y="350" as="sourcePoint" />
            <mxPoint x="280" y="349.66" as="targetPoint" />
            <mxPoint as="offset" />
          </mxGeometry>
        </mxCell>
        <mxCell id="OMP3_EN-doG6q4LS8CJa-80" value="Le client gènére son image&lt;div&gt;avec les machines mises&lt;/div&gt;&lt;div&gt;à sa disposition&lt;/div&gt;" style="endArrow=classic;html=1;rounded=0;" edge="1" parent="1">
          <mxGeometry y="-80" width="50" height="50" relative="1" as="geometry">
            <mxPoint x="200" y="340" as="sourcePoint" />
            <mxPoint x="200" y="440" as="targetPoint" />
            <mxPoint as="offset" />
          </mxGeometry>
        </mxCell>
        <mxCell id="OMP3_EN-doG6q4LS8CJa-81" value="" style="shape=ext;double=1;whiteSpace=wrap;html=1;aspect=fixed;" vertex="1" parent="1">
          <mxGeometry x="120" y="450" width="160" height="160" as="geometry" />
        </mxCell>
        <mxCell id="OMP3_EN-doG6q4LS8CJa-82" value="" style="rounded=1;whiteSpace=wrap;html=1;strokeWidth=2;fillWeight=4;hachureGap=8;hachureAngle=45;fillColor=#FF0080;sketch=1;" vertex="1" parent="1">
          <mxGeometry x="120" y="450" width="80" height="80" as="geometry" />
        </mxCell>
        <mxCell id="OMP3_EN-doG6q4LS8CJa-83" value="" style="rounded=1;whiteSpace=wrap;html=1;strokeWidth=2;fillWeight=4;hachureGap=8;hachureAngle=45;fillColor=#1ba1e2;sketch=1;" vertex="1" parent="1">
          <mxGeometry x="200" y="450" width="80" height="80" as="geometry" />
        </mxCell>
        <mxCell id="OMP3_EN-doG6q4LS8CJa-84" value="" style="rounded=1;whiteSpace=wrap;html=1;strokeWidth=2;fillWeight=4;hachureGap=8;hachureAngle=45;fillColor=#FF8000;sketch=1;" vertex="1" parent="1">
          <mxGeometry x="120" y="530" width="80" height="80" as="geometry" />
        </mxCell>
        <mxCell id="OMP3_EN-doG6q4LS8CJa-85" value="" style="rounded=1;whiteSpace=wrap;html=1;strokeWidth=2;fillWeight=4;hachureGap=8;hachureAngle=45;fillColor=#FF0080;sketch=1;" vertex="1" parent="1">
          <mxGeometry x="200" y="530" width="80" height="80" as="geometry" />
        </mxCell>
        <mxCell id="OMP3_EN-doG6q4LS8CJa-87" value="&lt;b&gt;M2&lt;/b&gt;" style="rounded=1;whiteSpace=wrap;html=1;strokeWidth=2;fillWeight=4;hachureGap=8;hachureAngle=45;fillColor=#1ba1e2;sketch=1;" vertex="1" parent="1">
          <mxGeometry x="530" y="330" width="60" height="40" as="geometry" />
        </mxCell>
        <mxCell id="OMP3_EN-doG6q4LS8CJa-88" value="&lt;b&gt;M3&lt;/b&gt;" style="rounded=1;whiteSpace=wrap;html=1;strokeWidth=2;fillWeight=4;hachureGap=8;hachureAngle=45;fillColor=#FF8000;sketch=1;" vertex="1" parent="1">
          <mxGeometry x="590" y="330" width="60" height="40" as="geometry" />
        </mxCell>
        <mxCell id="OMP3_EN-doG6q4LS8CJa-89" value="&lt;b&gt;M1&lt;/b&gt;" style="rounded=1;whiteSpace=wrap;html=1;strokeWidth=2;fillWeight=4;hachureGap=8;hachureAngle=45;fillColor=#FF0080;sketch=1;" vertex="1" parent="1">
          <mxGeometry x="470" y="330" width="60" height="40" as="geometry" />
        </mxCell>
      </root>
    </mxGraphModel>
  </diagram>
</mxfile>
